<svg aria-hidden="true" style="position:absolute;width:0;height:0;overflow:hidden" xmlns="http://www.w3.org/2000/svg">
  <defs>
    <symbol id="icon-youtube" viewBox="0 0 32 32">
      <path d="M24.24 6c-1.36-.08-4.16-.16-8.4-.16h-.56c-4.08 0-6.8.08-8.16.24-1.84.16-3.12.64-3.84 1.28-.64.56-1.12 1.6-1.28 2.96-.08.88-.16 2.72-.16 5.52v.4c0 2.64.08 4.48.24 5.36.24 1.28.64 2.24 1.44 2.8.8.64 2.16 1.04 4.08 1.2 1.36.08 4.16.16 8.4.16h.56c4.08 0 6.8-.08 8.16-.24 1.84-.16 3.12-.64 3.84-1.28.64-.56 1.12-1.6 1.28-2.96.08-.88.16-2.72.16-5.52v-.4c0-2.64-.08-4.48-.24-5.36-.24-1.28-.64-2.24-1.44-2.8-.8-.64-2.16-1.04-4.08-1.2zm-3.12 9.84-8.8 5.28V10.56l8.8 5.28z"/>
    </symbol>
    <symbol id="icon-instagram" viewBox="0 0 32 32">
      <path d="M28.718 10.756a9.264 9.264 0 0 0-.596-3.145 6.547 6.547 0 0 0-3.743-3.737 9.42 9.42 0 0 0-3.108-.596c-1.368-.061-1.801-.078-5.273-.078s-3.916 0-5.274.078a9.418 9.418 0 0 0-3.106.596 6.541 6.541 0 0 0-3.743 3.737 9.288 9.288 0 0 0-.596 3.101c-.061 1.367-.08 1.8-.08 5.265s0 3.909.08 5.265a9.335 9.335 0 0 0 .596 3.104 6.55 6.55 0 0 0 3.744 3.736c.989.386 2.04.604 3.106.639 1.369.061 1.803.08 5.274.08s3.916 0 5.274-.08a9.362 9.362 0 0 0 3.108-.595 6.555 6.555 0 0 0 3.743-3.737 9.35 9.35 0 0 0 .596-3.104c.061-1.365.08-1.798.08-5.265-.003-3.466-.003-3.906-.082-5.264zM15.99 22.531c-3.631 0-6.572-2.936-6.572-6.561s2.941-6.561 6.572-6.561c3.628 0 6.572 2.936 6.572 6.561s-2.944 6.561-6.572 6.561zm6.834-11.835a1.53 1.53 0 1 1 0-3.06 1.53 1.53 0 1 1 0 3.06z"/>
      <path d="M15.992 19.976a4.004 4.004 0 1 0 0-8.009 4.004 4.004 0 0 0 0 8.009z"/>
    </symbol>
    <symbol id="icon-facebook" viewBox="0 0 32 32">
      <path d="M19.52 4.64h.96v3.6h-1.2c-.48 0-.96 0-1.2.24s-.24.48-.24 1.04v1.28h2.64v3.04h-2.64v13.2h-4.08V13.76H11.6v-3.04h2.16V9.68c0-1.76.24-3.04.72-3.6.72-1.04 2.16-1.52 4.32-1.52.24.08.48.08.72.08z"/>
    </symbol>
    <symbol id="icon-menu" viewBox="0 0 32 32">
      <path d="M3.667 10.186c-0.274 0.090-0.5 0.261-0.657 0.485l-0.003 0.004c-0.139 0.201-0.154 0.265-0.154 0.658s0.014 0.457 0.156 0.661c0.086 0.124 0.266 0.29 0.4 0.369l0.244 0.143h24.693l0.244-0.143c0.134-0.078 0.314-0.245 0.4-0.369 0.142-0.204 0.156-0.266 0.156-0.661s-0.014-0.457-0.156-0.662c-0.111-0.146-0.243-0.269-0.394-0.365l-0.006-0.004-0.244-0.143-12.266-0.009c-6.746-0.005-12.332 0.010-12.413 0.035zM3.667 19.519c-0.274 0.091-0.5 0.262-0.657 0.485l-0.003 0.004c-0.139 0.201-0.154 0.264-0.154 0.658 0 0.395 0.014 0.457 0.156 0.662 0.086 0.124 0.266 0.29 0.4 0.369l0.244 0.143h24.693l0.244-0.143c0.134-0.079 0.314-0.245 0.4-0.369 0.142-0.205 0.156-0.266 0.156-0.662s-0.014-0.457-0.156-0.661c-0.11-0.146-0.243-0.269-0.394-0.365l-0.006-0.004-0.244-0.143-12.266-0.010c-6.746-0.005-12.332 0.011-12.413 0.035z"></path>
    </symbol>
    <symbol id="icon-menu-close" viewBox="0 0 32 32">
      <path fill="#fefefe" style="fill: var(--color1, #fefefe)" d="M7.867 6.767h0.3l0.233 0.083 0.267 0.15 0.183 0.15 0.167 0.15 6.583 6.583 0.133 0.117 0.117 0.133 0.133 0.1 0.067-0.017 0.417-0.417 0.133-0.117 0.25-0.25 0.117-0.133 0.133-0.117 0.117-0.133 0.183-0.167 0.117-0.133 0.167-0.15 0.117-0.133 0.133-0.117 0.117-0.133 0.133-0.117 0.117-0.133 0.15-0.133 0.117-0.133 0.15-0.133 0.117-0.133 0.133-0.117 0.117-0.133 0.15-0.133 0.117-0.133 0.15-0.133 0.117-0.133 0.167-0.15 0.117-0.133 0.15-0.133 0.117-0.133 0.133-0.117 0.117-0.133 0.15-0.133 0.117-0.133 0.15-0.133 0.117-0.133 0.15-0.133 0.117-0.133 0.15-0.133 0.117-0.133 0.15-0.133 0.117-0.133 1.383-1.383 0.25-0.183 0.233-0.117 0.183-0.050 0.2-0.017 0.25 0.033 0.25 0.1 0.167 0.1 0.167 0.133 0.133 0.15 0.1 0.167 0.1 0.233 0.050 0.283v0.15l-0.067 0.217-0.167 0.317-0.183 0.217-0.15 0.167-1.25 1.25-0.083 0.1-0.133 0.117-0.15 0.167-0.133 0.117-0.15 0.167h-0.033v0.033l-0.1 0.083-0.117 0.133-0.050 0.017v0.033l-0.083 0.067-0.117 0.133-0.067 0.033v0.033l-0.083 0.067-0.117 0.133-0.067 0.033v0.033l-0.083 0.067-0.117 0.133-0.067 0.033v0.033l-0.083 0.067-0.117 0.133-0.067 0.033v0.033l-0.083 0.067-0.117 0.133-0.067 0.033v0.033l-0.083 0.067-0.117 0.133-0.133 0.117-0.117 0.133-0.133 0.117-0.117 0.133-0.9 0.9-0.083 0.067-0.117 0.133-1.067 1.067-0.133 0.117-0.15 0.167-0.133 0.117-0.117 0.117 0.033 0.067 0.117 0.133 0.133 0.117 6.733 6.733 0.15 0.183 0.133 0.167 0.133 0.25 0.067 0.25v0.25l-0.083 0.25-0.15 0.283-0.15 0.183-0.15 0.15-0.2 0.1-0.267 0.083-0.15 0.033h-0.1l-0.083 0.017-0.25-0.067-0.267-0.15-0.233-0.183-0.2-0.183-0.417-0.417-0.050-0.033v-0.033l-0.050-0.017-0.117-0.133-0.1-0.083v-0.033l-0.067-0.033-0.117-0.133-0.083-0.067v-0.033l-0.067-0.033-0.117-0.133-0.133-0.117-0.117-0.133-5.333-5.333v-0.033l-0.067-0.033-0.067-0.050-0.117 0.033-0.167 0.15-0.233 0.233h-0.033l-0.033 0.067-1.383 1.383-0.083 0.1-0.133 0.117-0.167 0.183h-0.033v0.033l-0.083 0.067-0.117 0.133-0.15 0.133-0.117 0.133-0.117 0.1-0.117 0.133-0.133 0.133h-0.033l-0.033 0.067-0.2 0.2h-0.033l-0.033 0.067-1.233 1.233-0.083 0.067-0.117 0.133-0.067 0.033v0.033l-0.083 0.067-0.117 0.133-0.067 0.033v0.033l-0.083 0.067-0.117 0.133-0.067 0.033v0.033l-0.083 0.067-0.117 0.133-0.133 0.117-0.117 0.133-0.15 0.133-0.117 0.133-0.2 0.183-0.050 0.067h-0.033v0.033l-0.133 0.117-0.433 0.433-0.133 0.117-0.15 0.1-0.25 0.117-0.267 0.067h-0.233l-0.25-0.067-0.25-0.133-0.167-0.133-0.117-0.1-0.133-0.183-0.083-0.2-0.067-0.267-0.017-0.1v-0.183l0.133-0.35 0.1-0.167 0.15-0.183 0.233-0.25 0.283-0.283 0.133-0.117 0.117-0.133 0.133-0.117 0.117-0.133 0.133-0.117 0.117-0.133 0.083-0.083h0.033v-0.033l0.75-0.75 0.083-0.067 0.117-0.133 0.167-0.15 0.117-0.133 0.15-0.133 0.117-0.133 0.15-0.133 0.117-0.133 0.15-0.133 0.117-0.133 0.15-0.133 0.117-0.133 0.15-0.133 0.117-0.133 0.15-0.133 0.117-0.133 0.15-0.133 0.117-0.133 0.133-0.117 0.117-0.133 0.083-0.083h0.033v-0.033l0.267-0.267h0.033l0.033-0.067 1.583-1.583 0.133-0.117 0.167-0.183 0.033-0.067-0.15-0.167-0.833-0.833v-0.033l-0.067-0.033-0.133-0.133-0.117-0.133-0.133-0.117-0.117-0.133-5.517-5.517-0.15-0.183-0.15-0.233-0.083-0.217-0.033-0.233v-0.167l0.117-0.35 0.117-0.2 0.2-0.217 0.167-0.133 0.25-0.117z"></path>
    </symbol>
  </defs>
</svg>
